<?xml version="1.0" encoding="utf-8"?>
<!-- Generator: Adobe Illustrator 16.0.0, SVG Export Plug-In . SVG Version: 6.00 Build 0)  -->
<!DOCTYPE svg PUBLIC "-//W3C//DTD SVG 1.1//EN" "http://www.w3.org/Graphics/SVG/1.1/DTD/svg11.dtd">
<svg version="1.1" id="Layer_1" xmlns="http://www.w3.org/2000/svg" xmlns:xlink="http://www.w3.org/1999/xlink" x="0px" y="0px"
	 width="500px" height="500px" viewBox="0 0 500 500" enable-background="new 0 0 500 500" xml:space="preserve">
<title>Asset 1</title>
<g id="Layer_2">
	<g id="Layer_1-2">
		<path fill="#777777" d="M431.659,145.79c0-0.17,0-0.34,0-0.52s0-0.34,0-0.52h-0.05c-0.52-25.57-20.08-46.7-45.47-50.49
			c-3.814-0.63-7.418,1.95-8.048,5.765c-0.054,0.322-0.085,0.648-0.092,0.976v7.66c-0.02,3.343,2.354,6.222,5.64,6.84
			c14.63,2.56,25.79,14.9,26,29.77c-0.25,14.88-11.41,27.22-26,29.78c-3.285,0.619-5.659,3.497-5.64,6.84v7.66
			c0.087,3.865,3.291,6.928,7.155,6.841c0.347-0.008,0.692-0.042,1.034-0.101C411.579,192.5,431.14,171.37,431.659,145.79
			L431.659,145.79z"/>
		<path fill="#777777" d="M500,145.62c0-0.29,0-0.57,0-0.86h-0.091c-0.899-40.4-33.31-73.47-74.479-77.14
			c-3.851-0.343-7.251,2.5-7.594,6.351c-0.015,0.156-0.023,0.313-0.026,0.469v7.78c0.04,3.557,2.784,6.496,6.33,6.78
			c29.93,3,53.36,27.21,53.81,56.66c-0.449,29.45-23.88,53.64-53.81,56.66c-3.528,0.287-6.265,3.201-6.33,6.74v7.78
			c0.084,3.865,3.285,6.93,7.15,6.846c0.157-0.003,0.313-0.012,0.47-0.026c41.17-3.66,73.57-36.78,74.479-77.19H500
			C500,146.18,500,145.91,500,145.62z"/>
		<path fill="#777777" d="M122.05,111.42v-7.66c-0.076-3.865-3.271-6.937-7.137-6.86c-0.354,0.007-0.705,0.041-1.054,0.101
			c-25.39,3.79-44.949,24.92-45.47,50.5l0,0c0,0.18,0,0.34,0,0.52s0,0.34,0,0.51l0,0c0.521,25.58,20.08,46.71,45.47,50.5
			c3.81,0.658,7.432-1.896,8.09-5.706c0.06-0.342,0.093-0.688,0.101-1.034v-7.66c0.019-3.343-2.354-6.222-5.64-6.84
			c-14.631-2.56-25.79-14.9-26-29.77c0.25-14.88,11.409-27.22,26-29.78C119.688,117.623,122.06,114.755,122.05,111.42z"/>
		<path fill="#777777" d="M22.05,148.38c0.45-29.44,23.88-53.64,53.81-56.66c3.521-0.282,6.255-3.188,6.32-6.72v-7.8
			c-0.054-3.833-3.203-6.896-7.036-6.843c-0.194,0.002-0.39,0.014-0.584,0.033C33.4,74.05,1,107.12,0.09,147.52H0
			c0,0.29,0,0.57,0.05,0.86s0,0.57,0,0.86h0.04c0.9,40.4,33.31,73.47,74.47,77.14c3.851,0.344,7.251-2.5,7.595-6.35
			c0.014-0.153,0.021-0.306,0.025-0.46v-7.79c-0.04-3.553-2.778-6.491-6.32-6.78C45.93,202,22.5,177.83,22.05,148.38z"/>
		<path fill="#777777" d="M399.909,236.31L399.909,236.31c-7.732-0.122-14.316,5.597-15.279,13.27
			c-6.851,64.66-63.21,115.29-131.561,115.49h-1.52c-68.35-0.2-124.7-50.83-131.55-115.49c-0.964-7.673-7.548-13.392-15.28-13.27
			l0,0c-8.371-0.134-15.267,6.543-15.401,14.915c-0.009,0.543,0.012,1.085,0.062,1.625c7.56,70.59,63,127.551,134.18,139.7
			c7.46,1.28,13,7.4,13,14.75v47.851c-0.093,8.377-6.96,15.094-15.337,15c-0.018,0-0.035,0-0.053,0h-9.33
			c-8.38-0.123-15.274,6.569-15.4,14.949l0,0c0.153,8.357,7.033,15.018,15.391,14.9h83.1c8.377,0.128,15.271-6.56,15.399-14.937
			c0-0.005,0-0.009,0-0.014l0,0c-0.12-8.377-7.009-15.07-15.386-14.95c-0.005,0-0.009,0-0.014,0h-12.18
			c-8.378,0.122-15.268-6.569-15.39-14.947c0-0.018,0-0.035-0.001-0.053V407.41c0-7.37,5.561-13.51,13.051-14.76
			c71.479-11.91,127.249-69,134.839-139.801c0.764-8.337-5.377-15.715-13.715-16.479
			C400.994,236.322,400.452,236.301,399.909,236.31z"/>
		<path fill="#FF7E27" d="M348.92,146.7c2.289-0.18,4.07-2.064,4.119-4.36v-2.77c-0.049-2.296-1.83-4.181-4.119-4.36
			c-13.771-1.45-24.36-10.08-24.36-20.51c0-10.43,10.44-18.94,24.08-20.48c2.433-0.222,4.246-2.342,4.09-4.78
			C348.88,39.43,305.89,0,253.38,0S157.88,39.43,154,89.44c-0.168,2.442,1.651,4.568,4.09,4.78c13.63,1.54,24.07,10.12,24.07,20.48
			c0,10.36-10.58,19.06-24.36,20.51c-2.287,0.184-4.066,2.066-4.12,4.36v2.77c0.054,2.294,1.833,4.176,4.12,4.36
			c13.78,1.45,24.36,10.08,24.36,20.51c0,10.43-10.58,19.06-24.36,20.52c-2.408,0.163-4.228,2.248-4.064,4.655
			c0.147,2.181,1.884,3.917,4.064,4.065c13.78,1.45,24.36,10.08,24.36,20.51s-10.54,19-24.261,20.5
			c-2.338,0.169-4.142,2.126-4.12,4.47c2.28,51.45,46,92.49,99.561,92.49c53.56,0,97.279-41,99.56-92.49
			c0.027-2.342-1.773-4.301-4.11-4.47C335.1,236,324.56,227.37,324.56,217s10.59-19.06,24.36-20.51
			c2.407-0.164,4.228-2.248,4.064-4.656c-0.148-2.181-1.884-3.917-4.064-4.064c-13.771-1.46-24.36-10.09-24.36-20.52
			S335.15,148.15,348.92,146.7z M292.77,222.51C283.59,230.17,270.58,234,253.74,234c-17.174,0-30.677-3.763-40.511-11.29
			c-5.716-4.239-10.051-10.074-12.46-16.77c-2.479-7,3.08-14.28,10.71-14.28h4.19c4.651-0.063,8.85,2.778,10.52,7.12
			c0.718,2.136,1.827,4.12,3.271,5.85c4.507,5.207,12.243,7.81,23.21,7.81c6.56,0,11.894-0.687,16-2.06
			c7.78-2.633,11.667-7.526,11.66-14.68c0.07-4.055-2.145-7.805-5.73-9.7c-3.813-2.227-9.847-4.2-18.1-5.92l-14.12-3
			c-13.88-2.974-23.413-6.207-28.601-9.7c-8.786-5.867-13.18-14.993-13.18-27.38c-0.206-10.886,4.534-21.279,12.891-28.26
			c8.6-7.5,21.229-11.25,37.89-11.25c13.913,0,25.78,3.537,35.6,10.61c5.75,4.04,10.162,9.706,12.67,16.27
			c2.7,7-2.89,14.52-10.62,14.52h-3.869c-4.505,0.085-8.606-2.586-10.351-6.74c-1.694-4.216-4.95-7.615-9.09-9.49
			c-4.36-2.12-9.77-3.18-16.229-3.18c-7.2,0-12.947,1.374-17.24,4.12c-4.078,2.382-6.544,6.788-6.44,11.51
			c0,4.52,2.117,7.897,6.351,10.13c2.72,1.493,8.496,3.24,17.33,5.24l22.88,5.24c10,2.293,17.517,5.356,22.55,9.19
			c7.779,5.946,11.67,14.56,11.67,25.84C306.59,205.29,301.983,214.876,292.77,222.51L292.77,222.51z"/>
	</g>
</g>
</svg>
