<svg xmlns="http://www.w3.org/2000/svg" viewBox="0 0 52.82 169.19"><defs><style>.cls-1{fill:#a07b40;}.cls-2{fill:none;stroke:#6d4e00;stroke-miterlimit:10;stroke-width:3.63px;}</style></defs><title>Leaf</title><g id="Layer_2" data-name="Layer 2"><g id="Layer_1-2" data-name="Layer 1"><path class="cls-1" d="M25,148.3c-13.2-19.34-46.1-79-5-146a4.75,4.75,0,0,1,8-.11c31.85,48.89,32.39,85.63,5.23,145.42A4.76,4.76,0,0,1,25,148.3Z"/><line class="cls-2" x1="26.23" y1="168.93" x2="28.95" y2="150.33"/><line class="cls-2" x1="23.96" y1="0.18" x2="28.95" y2="150.33"/><line class="cls-2" x1="25.77" y1="56.43" x2="12.62" y2="42.82"/><line class="cls-2" x1="25.32" y1="42.37" x2="36.21" y2="28.76"/><line class="cls-2" x1="24.87" y1="24.23" x2="16.25" y2="15.15"/><line class="cls-2" x1="27.59" y1="70.49" x2="43.92" y2="54.62"/><line class="cls-2" x1="27.59" y1="84.1" x2="10.35" y2="68.68"/><line class="cls-2" x1="27.59" y1="96.35" x2="42.1" y2="78.66"/><line class="cls-2" x1="26.23" y1="112.23" x2="13.53" y2="96.8"/><line class="cls-2" x1="27.59" y1="123.57" x2="41.2" y2="106.78"/><line class="cls-2" x1="28.49" y1="131.73" x2="18.97" y2="119.48"/></g></g></svg>