<?xml version="1.0" encoding="utf-8"?>
<!-- Generator: Adobe Illustrator 16.0.0, SVG Export Plug-In . SVG Version: 6.00 Build 0)  -->
<!DOCTYPE svg PUBLIC "-//W3C//DTD SVG 1.1//EN" "http://www.w3.org/Graphics/SVG/1.1/DTD/svg11.dtd">
<svg version="1.1" id="Layer_1" xmlns="http://www.w3.org/2000/svg" xmlns:xlink="http://www.w3.org/1999/xlink" x="0px" y="0px"
	 width="500px" height="500px" viewBox="0 0 500 500" enable-background="new 0 0 500 500" xml:space="preserve">
<path fill="#565555" d="M250.667,1.335C112.966,1.335,1.335,112.966,1.335,250.668C1.335,388.368,112.966,500,250.667,500
	S500,388.368,500,250.668C500,112.966,388.368,1.335,250.667,1.335z M250.667,466.066c-118.961,0-215.399-96.438-215.399-215.398
	s96.438-215.4,215.399-215.4c118.962,0,215.398,96.438,215.398,215.4S369.63,466.066,250.667,466.066z"/>
<circle fill="#DD6400" cx="250.667" cy="130.637" r="45.291"/>
<path fill="#DD6400" d="M250.667,200.563c-25.016,0-45.291,20.277-45.291,45.291v126.448h0.18
	c1.992,23.173,21.421,41.364,45.111,41.364c23.688,0,43.119-18.191,45.108-41.364h0.183V245.854
	C295.958,220.841,275.681,200.563,250.667,200.563z"/>
</svg>
