<?xml version="1.0" encoding="utf-8"?>
<!-- Generator: Adobe Illustrator 16.0.0, SVG Export Plug-In . SVG Version: 6.00 Build 0)  -->
<!DOCTYPE svg PUBLIC "-//W3C//DTD SVG 1.1//EN" "http://www.w3.org/Graphics/SVG/1.1/DTD/svg11.dtd">
<svg version="1.1" id="Layer_1" xmlns="http://www.w3.org/2000/svg" xmlns:xlink="http://www.w3.org/1999/xlink" x="0px" y="0px"
	 width="500px" height="500px" viewBox="0 0 500 500" enable-background="new 0 0 500 500" xml:space="preserve">
<line fill="none" x1="234.554" y1="292.613" x2="265.448" y2="292.613"/>
<line fill="none" x1="265.447" y1="292.613" x2="234.554" y2="292.613"/>
<path fill="#212121" d="M234.554,292.613"/>
<path fill="#212121" d="M234.554,292.613"/>
<g>
	<path opacity="0.1" fill="#DD6400" enable-background="new    " d="M309.521,131.81c0,0-116.386,0-119.462,0
		c-3.075,0-4.255,1.333-4.254,3.659c0.002,6.392,1.392,20.109,5.385,35.515c10.439,40.268,59.111,82.854,59.111,82.854
		s47.704-43.299,58.905-83.36c5.237-24.207,4.564-28.628,4.566-35.009C313.775,133.144,312.596,131.81,309.521,131.81z"/>
	<path fill="#DD6400" d="M353.193,94.612h-25.996c0,0-175.485,0-180.811,0s-7.367,2.308-7.365,6.333
		c0.004,11.066,0.924,35.11,7.713,59.854c0.068,0.252,0.122,0.498,0.193,0.751c19.395,69.352,77.797,123.296,85.621,130.284
		l0.417,0.777h0.011h0.451h0.012h32.7h0.012h0.451h0.012l0.417-0.777c7.823-6.989,66.228-60.932,85.62-130.284
		c0.083-0.296,0.154-0.592,0.23-0.888c6.755-24.697,7.672-48.672,7.676-59.718C360.56,96.92,358.517,94.612,353.193,94.612z
		 M309.206,170.478c-11.201,40.061-58.905,83.36-58.905,83.36s-48.672-42.587-59.111-82.854
		c-3.994-15.406-5.383-29.123-5.385-35.515c-0.001-2.325,1.179-3.659,4.254-3.659c3.076,0,119.462,0,119.462,0
		c3.075,0,4.255,1.333,4.254,3.659C313.772,141.849,314.445,146.271,309.206,170.478z"/>
</g>
<g>
	<path opacity="0.1" fill="#DD6400" enable-background="new    " d="M309.209,421.036c-11.203-40.063-59.214-83.978-59.214-83.978
		s-48.42,43.914-59.624,83.978c-0.05,0.171-0.089,0.342-0.135,0.514c-3.899,14.269-4.431,28.115-4.434,34.494
		c0,2.326,16.376,13.451,64.928,13.451s63.043-11.125,63.042-13.451c-0.002-6.392-0.533-20.279-4.455-34.574
		C309.28,421.324,309.246,421.182,309.209,421.036z"/>
	<path fill="#DD6400" d="M352.641,423.675c-19.396-69.352-77.798-123.295-85.622-130.284l-0.416-0.777h-0.463h-32.712h-0.462
		l-0.359,0.727c-7.601,6.783-66.237,60.819-85.679,130.337c-9.493,34.017-7.848,40.729-7.42,45.82l-0.38,0.882h0.462L343,469.495
		L353,465l7.558-1.333C361.002,458.259,362.055,457.409,352.641,423.675z M250.732,469.495c-48.551,0-64.928-11.125-64.928-13.451
		c0.003-6.379,0.533-20.228,4.434-34.494c0.046-0.172,0.085-0.343,0.135-0.514c11.204-40.063,59.624-83.978,59.624-83.978
		s48.011,43.914,59.214,83.978c0.037,0.146,0.069,0.288,0.108,0.434c3.922,14.295,4.453,28.185,4.455,34.574
		C313.775,458.37,299.282,469.495,250.732,469.495z"/>
</g>
<path fill="#565555" d="M250.667,1.335C112.966,1.335,1.335,112.966,1.335,250.668C1.335,388.368,112.966,500,250.667,500
	S500,388.368,500,250.668C500,112.966,388.368,1.335,250.667,1.335z M250.667,466.066c-118.961,0-215.399-96.438-215.399-215.398
	s96.438-215.4,215.399-215.4c118.962,0,215.398,96.438,215.398,215.4S369.63,466.066,250.667,466.066z"/>
</svg>
