<?xml version="1.0" encoding="utf-8"?>
<!-- Generator: Adobe Illustrator 16.0.0, SVG Export Plug-In . SVG Version: 6.00 Build 0)  -->
<!DOCTYPE svg PUBLIC "-//W3C//DTD SVG 1.1//EN" "http://www.w3.org/Graphics/SVG/1.1/DTD/svg11.dtd">
<svg version="1.1" id="Layer_1" xmlns="http://www.w3.org/2000/svg" xmlns:xlink="http://www.w3.org/1999/xlink" x="0px" y="0px"
	 width="500px" height="500px" viewBox="0 0 500 500" enable-background="new 0 0 500 500" xml:space="preserve">
<path fill="#DD6400" d="M250.668,158.558l-65.297,52.365v-36.271h-45.5v72.759l-45.018,36.101v155.978
	c0,0,63.191,37.79,161.447,37.79s150.181-37.79,150.181-37.79V283.512L250.668,158.558z"/>
<rect x="269.767" y="375.535" fill="#FFFFFF" width="68.512" height="93.813"/>
<path fill="#565555" d="M250.667,1.335C112.966,1.335,1.335,112.966,1.335,250.668C1.335,388.368,112.966,500,250.667,500
	C388.369,500,500,388.368,500,250.668C500,112.966,388.369,1.335,250.667,1.335z M250.667,466.066
	c-118.961,0-215.399-96.438-215.399-215.398s96.438-215.4,215.399-215.4c118.962,0,215.399,96.438,215.399,215.4
	S369.63,466.066,250.667,466.066z"/>
</svg>
