<svg xmlns="http://www.w3.org/2000/svg" viewBox="0 0 500 500"><title>Asset 1</title><g id="Layer_2" data-name="Layer 2"><g id="Layer_1-2" data-name="Layer 1"><path d="M431.66,145.79c0-.17,0-.34,0-.52s0-.34,0-.52h-.05c-.52-25.57-20.08-46.7-45.47-50.49A7,7,0,0,0,378,101v7.66a6.92,6.92,0,0,0,5.64,6.84c14.63,2.56,25.79,14.9,26,29.77-.25,14.88-11.41,27.22-26,29.78a6.92,6.92,0,0,0-5.64,6.84v7.66a7,7,0,0,0,8.19,6.74c25.39-3.79,44.95-24.92,45.47-50.5Z"/><path d="M500,145.62c0-.29,0-.57,0-.86h-.09c-.9-40.4-33.31-73.47-74.48-77.14a7,7,0,0,0-7.62,6.82v7.78A6.88,6.88,0,0,0,424.14,89c29.93,3,53.36,27.21,53.81,56.66-.45,29.45-23.88,53.64-53.81,56.66a6.89,6.89,0,0,0-6.33,6.74v7.78a7,7,0,0,0,7.62,6.82C466.6,220,499,186.88,499.91,146.47H500C500,146.18,500,145.91,500,145.62Z"/><path d="M122.05,111.42v-7.66A7,7,0,0,0,113.86,97c-25.39,3.79-44.95,24.92-45.47,50.5h0c0,.18,0,.34,0,.52s0,.34,0,.51h0c.52,25.58,20.08,46.71,45.47,50.5a7,7,0,0,0,8.19-6.74v-7.66a6.92,6.92,0,0,0-5.64-6.84c-14.63-2.56-25.79-14.9-26-29.77.25-14.88,11.41-27.22,26-29.78A6.92,6.92,0,0,0,122.05,111.42Z"/><path d="M22.05,148.38c.45-29.44,23.88-53.64,53.81-56.66A6.87,6.87,0,0,0,82.18,85V77.2a6.94,6.94,0,0,0-7.62-6.81C33.4,74.05,1,107.12.09,147.52H0c0,.29,0,.57.05.86s0,.57,0,.86H.09c.9,40.4,33.31,73.47,74.47,77.14a7,7,0,0,0,7.62-6.81v-7.79A6.88,6.88,0,0,0,75.86,205C45.93,202,22.5,177.83,22.05,148.38Z"/><path d="M399.91,236.31h0a15.16,15.16,0,0,0-15.28,13.27c-6.85,64.66-63.21,115.29-131.56,115.49h-1.52c-68.35-.2-124.7-50.83-131.55-115.49a15.16,15.16,0,0,0-15.28-13.27h0a15.16,15.16,0,0,0-15.34,16.54c7.56,70.59,63,127.55,134.18,139.7,7.46,1.28,13,7.4,13,14.75v47.85a15.17,15.17,0,0,1-15.39,15h-9.33a15.18,15.18,0,0,0-15.4,14.95h0A15.18,15.18,0,0,0,211.83,500h83.1a15.17,15.17,0,0,0,15.4-14.95h0a15.17,15.17,0,0,0-15.4-14.95H282.75a15.17,15.17,0,0,1-15.39-15V407.41c0-7.37,5.56-13.51,13.05-14.76,71.48-11.91,127.25-69,134.84-139.8A15.16,15.16,0,0,0,399.91,236.31Z"/><path d="M348.92,146.7a4.47,4.47,0,0,0,4.12-4.36v-2.77a4.47,4.47,0,0,0-4.12-4.36c-13.77-1.45-24.36-10.08-24.36-20.51S335,95.76,348.64,94.22a4.51,4.51,0,0,0,4.09-4.78C348.88,39.43,305.89,0,253.38,0S157.88,39.43,154,89.44a4.49,4.49,0,0,0,4.09,4.78c13.63,1.54,24.07,10.12,24.07,20.48s-10.58,19.06-24.36,20.51a4.48,4.48,0,0,0-4.12,4.36v2.77a4.48,4.48,0,0,0,4.12,4.36c13.78,1.45,24.36,10.08,24.36,20.51s-10.58,19.06-24.36,20.52a4.37,4.37,0,0,0,0,8.72c13.78,1.45,24.36,10.08,24.36,20.51s-10.54,19-24.26,20.5a4.44,4.44,0,0,0-4.12,4.47c2.28,51.45,46,92.49,99.56,92.49s97.28-41,99.56-92.49a4.43,4.43,0,0,0-4.11-4.47C335.1,236,324.56,227.37,324.56,217s10.59-19.06,24.36-20.51a4.37,4.37,0,0,0,0-8.72c-13.77-1.46-24.36-10.09-24.36-20.52S335.15,148.15,348.92,146.7Zm-56.15,75.81Q279,234,253.74,234q-25.76,0-40.51-11.29a36.09,36.09,0,0,1-12.46-16.77c-2.48-7,3.08-14.28,10.71-14.28h4.19a11.11,11.11,0,0,1,10.52,7.12,18.16,18.16,0,0,0,3.27,5.85q6.76,7.81,23.21,7.81,9.84,0,16-2.06,11.67-3.95,11.66-14.68A10.76,10.76,0,0,0,274.6,186q-5.72-3.34-18.1-5.92l-14.12-3q-20.82-4.46-28.6-9.7Q200.6,158.58,200.6,140a35.94,35.94,0,0,1,12.89-28.26q12.9-11.25,37.89-11.25,20.87,0,35.6,10.61a35.27,35.27,0,0,1,12.67,16.27c2.7,7-2.89,14.52-10.62,14.52h-3.87a11,11,0,0,1-10.35-6.74,17.64,17.64,0,0,0-9.09-9.49q-6.54-3.18-16.23-3.18-10.8,0-17.24,4.12a13,13,0,0,0-6.44,11.51q0,6.78,6.35,10.13,4.08,2.24,17.33,5.24l22.88,5.24q15,3.44,22.55,9.19,11.67,8.92,11.67,25.84Q306.59,211.06,292.77,222.51Z"/></g></g></svg>