<?xml version="1.0" encoding="utf-8"?>
<!-- Generator: Adobe Illustrator 16.0.0, SVG Export Plug-In . SVG Version: 6.00 Build 0)  -->
<!DOCTYPE svg PUBLIC "-//W3C//DTD SVG 1.1//EN" "http://www.w3.org/Graphics/SVG/1.1/DTD/svg11.dtd">
<svg version="1.1" id="Layer_1" xmlns="http://www.w3.org/2000/svg" xmlns:xlink="http://www.w3.org/1999/xlink" x="0px" y="0px"
	 width="500px" height="500px" viewBox="0 0 500 500" enable-background="new 0 0 500 500" xml:space="preserve">
<g>
	<path fill="#212121" d="M249.333,468.621c71.974,0,135.702-35.271,174.874-89.46c-0.756-1.278-3.55-5.223-10.71-8.238
		c-8.666-3.648-78.891-28.273-88.924-33.743c-10.03-5.472-21.432-14.594-24.625-23.258c-3.19-8.664-5.47-17.328-5.47-23.255
		c0-5.93,3.189-20.064,5.47-24.169c2.281-4.104,5.93-12.767,6.844-15.959c0.91-3.193,1.366-8.208,2.277-10.489
		c0.911-2.279,10.488-9.577,13.225-15.049c2.736-5.471,3.649-14.136,3.649-17.783c0-3.649-1.37-7.753-2.736-10.032
		c-1.367-2.28-2.277-2.129-2.734-3.799c-0.457-1.672,3.04-26.448,3.19-31.768c0.152-5.321,0.91-27.362-16.111-43.473
		c-17.023-16.112-27.665-21.435-58.218-21.435c-30.554,0-41.194,5.322-58.218,21.435c-17.021,16.111-16.263,38.152-16.112,43.473
		c0.152,5.32,3.647,30.096,3.191,31.768c-0.456,1.67-1.368,1.519-2.735,3.799c-1.366,2.279-2.736,6.383-2.736,10.032
		c0,3.647,0.912,12.312,3.65,17.783c2.735,5.472,12.313,12.77,13.223,15.049c0.913,2.281,1.368,7.296,2.279,10.489
		c0.914,3.192,4.561,11.855,6.841,15.959c2.281,4.104,5.472,18.239,5.472,24.169c0,5.927-2.28,14.591-5.472,23.255
		c-3.192,8.664-14.591,17.786-24.623,23.258c-10.033,5.47-80.258,30.095-88.922,33.743c-7.162,3.016-9.956,6.96-10.712,8.238
		C113.63,433.35,177.357,468.621,249.333,468.621z"/>
	<path fill="#212121" d="M175.544,385.586c0,0,0.081-0.17,0.246-0.453C175.623,385.416,175.544,385.586,175.544,385.586z"/>
</g>
<path fill="#565555" d="M250.667,1.335C112.966,1.335,1.335,112.966,1.335,250.668C1.335,388.368,112.966,500,250.667,500
	C388.37,500,500,388.368,500,250.668C500,112.966,388.37,1.335,250.667,1.335z M250.667,466.066
	c-118.961,0-215.399-96.437-215.399-215.398s96.438-215.4,215.399-215.4c118.962,0,215.4,96.438,215.4,215.4
	S369.63,466.066,250.667,466.066z"/>
</svg>
