<?xml version="1.0" encoding="utf-8"?>
<!-- Generator: Adobe Illustrator 16.0.0, SVG Export Plug-In . SVG Version: 6.00 Build 0)  -->
<!DOCTYPE svg PUBLIC "-//W3C//DTD SVG 1.1//EN" "http://www.w3.org/Graphics/SVG/1.1/DTD/svg11.dtd">
<svg version="1.1" id="Layer_1" xmlns="http://www.w3.org/2000/svg" xmlns:xlink="http://www.w3.org/1999/xlink" x="0px" y="0px"
	 width="500px" height="500px" viewBox="0 0 500 500" enable-background="new 0 0 500 500" xml:space="preserve">
<line fill="none" x1="234.554" y1="292.613" x2="265.448" y2="292.613"/>
<line fill="none" x1="265.447" y1="292.613" x2="234.554" y2="292.613"/>
<path fill="#212121" d="M234.554,292.613"/>
<path fill="#212121" d="M234.554,292.613"/>
<g>
	<path fill="#DD6400" d="M395.347,228.44c-0.695-4.578-3.851-8.398-8.21-9.943l-23.086-8.211c-1.367-3.867-2.916-7.628-4.633-11.265
		l10.509-22.11c1.982-4.17,1.51-9.102-1.228-12.831c-8.855-12.043-19.437-22.624-31.448-31.438
		c-3.732-2.74-8.647-3.206-12.825-1.218l-22.097,10.499c-3.639-1.717-7.403-3.264-11.275-4.629l-8.211-23.09
		c-1.547-4.35-5.356-7.497-9.924-8.201c-16.229-2.494-28.242-2.494-44.498,0c-4.563,0.703-8.377,3.851-9.923,8.201l-8.212,23.09
		c-3.872,1.366-7.638,2.912-11.273,4.629l-22.104-10.499c-4.17-1.987-9.093-1.521-12.821,1.218
		c-12.012,8.815-22.592,19.396-31.447,31.438c-2.74,3.729-3.209,8.659-1.225,12.831l10.506,22.11
		c-1.718,3.631-3.263,7.399-4.632,11.265l-23.091,8.219c-4.354,1.547-7.506,5.365-8.205,9.936c-1.26,8.275-1.849,15.33-1.849,22.232
		c0,6.893,0.588,13.957,1.849,22.232c0.694,4.578,3.852,8.398,8.209,9.943l23.087,8.211c1.369,3.875,2.919,7.637,4.632,11.273
		l-10.506,22.104c-1.984,4.168-1.513,9.1,1.222,12.82c8.844,12.035,19.423,22.617,31.451,31.447
		c3.729,2.74,8.651,3.215,12.825,1.219l22.097-10.498c3.637,1.717,7.403,3.262,11.275,4.629l8.211,23.09
		c1.546,4.35,5.356,7.498,9.923,8.201c8.121,1.252,15.396,1.857,22.248,1.857s14.13-0.605,22.249-1.857
		c4.566-0.703,8.376-3.852,9.921-8.201l8.213-23.09c3.872-1.367,7.639-2.912,11.275-4.629l22.096,10.498
		c4.179,1.994,9.101,1.52,12.83-1.219c12.041-8.846,22.621-19.426,31.448-31.447c2.734-3.721,3.205-8.652,1.223-12.82
		l-10.507-22.104c1.717-3.639,3.266-7.408,4.633-11.273l23.087-8.211c4.357-1.545,7.514-5.363,8.209-9.943
		c1.259-8.273,1.848-15.338,1.848-22.232C397.194,243.78,396.607,236.712,395.347,228.44z M371.47,261.759l-21.658,7.703
		c-3.785,1.34-6.697,4.414-7.839,8.275c-1.934,6.539-4.479,12.729-7.574,18.404c-1.922,3.531-2.04,7.768-0.315,11.398l9.824,20.66
		c-4.747,5.701-9.995,10.959-15.704,15.699l-20.658-9.813c-3.634-1.742-7.857-1.602-11.395,0.313
		c-5.684,3.09-11.875,5.635-18.421,7.572c-3.852,1.139-6.926,4.047-8.271,7.832l-7.706,21.67c-7.867,0.799-14.302,0.799-22.168,0
		l-7.706-21.67c-1.346-3.777-4.42-6.695-8.271-7.832c-6.549-1.936-12.748-4.48-18.422-7.572c-3.536-1.928-7.769-2.051-11.395-0.313
		l-20.659,9.822c-5.702-4.752-10.952-10-15.703-15.707l9.823-20.662c1.727-3.631,1.606-7.865-0.314-11.398
		c-3.086-5.656-5.634-11.855-7.576-18.414c-1.14-3.85-4.055-6.924-7.836-8.266l-21.66-7.703c-0.409-3.939-0.605-7.572-0.605-11.086
		c0-3.516,0.197-7.139,0.605-11.08l21.664-7.707c3.781-1.342,6.692-4.416,7.832-8.268c1.938-6.541,4.486-12.738,7.576-18.422
		c1.92-3.524,2.041-7.769,0.314-11.391l-9.823-20.661c4.754-5.707,10.004-10.964,15.703-15.707l20.668,9.822
		c3.617,1.742,7.865,1.602,11.394-0.312c5.671-3.091,11.864-5.634,18.413-7.571c3.852-1.137,6.926-4.055,8.271-7.832l7.705-21.669
		c7.792-0.809,14.24-0.809,22.168,0l7.707,21.669c1.346,3.777,4.42,6.697,8.27,7.832c6.55,1.937,12.747,4.48,18.422,7.571
		c3.537,1.93,7.76,2.053,11.394,0.312l20.659-9.822c5.7,4.743,10.949,10,15.704,15.707l-9.824,20.661
		c-1.726,3.624-1.605,7.867,0.315,11.391c3.099,5.7,5.646,11.889,7.574,18.413c1.141,3.861,4.053,6.936,7.839,8.275l21.658,7.703
		c0.41,3.941,0.607,7.572,0.607,11.086C372.076,254.187,371.88,257.817,371.47,261.759z"/>
	<path fill="#DD6400" d="M250.669,189.575c-32.059,0-58.144,26.083-58.144,58.145s26.083,58.145,58.144,58.145
		c32.063,0,58.146-26.082,58.146-58.145S282.731,189.575,250.669,189.575z M250.669,280.745c-18.209,0-33.026-14.814-33.026-33.025
		s14.817-33.025,33.026-33.025c18.21,0,33.026,14.816,33.026,33.025C283.696,265.931,268.879,280.745,250.669,280.745z"/>
	<g opacity="0.1" enable-background="new    ">
		<path fill="#DD6400" d="M371.471,239.587l-21.658-7.703c-3.786-1.34-6.698-4.414-7.839-8.275
			c-1.929-6.523-4.476-12.713-7.574-18.413c-1.921-3.524-2.041-7.767-0.315-11.391l9.824-20.661
			c-4.755-5.707-10.004-10.964-15.704-15.707l-20.659,9.822c-3.634,1.741-7.856,1.618-11.394-0.312
			c-5.675-3.091-11.872-5.634-18.422-7.571c-3.85-1.135-6.924-4.055-8.27-7.832l-7.707-21.669c-7.928-0.809-14.376-0.809-22.168,0
			l-7.705,21.669c-1.345,3.777-4.419,6.695-8.271,7.832c-6.549,1.937-12.742,4.48-18.413,7.571
			c-3.529,1.914-7.777,2.054-11.394,0.312l-20.668-9.822c-5.699,4.743-10.948,10-15.703,15.707l9.823,20.661
			c1.727,3.622,1.606,7.867-0.314,11.391c-3.09,5.684-5.638,11.881-7.576,18.422c-1.14,3.852-4.051,6.926-7.832,8.268l-21.664,7.707
			c-0.409,3.941-0.605,7.564-0.605,11.08c0,3.514,0.197,7.146,0.605,11.086l21.66,7.703c3.782,1.342,6.697,4.416,7.836,8.266
			c1.942,6.559,4.49,12.758,7.576,18.414c1.92,3.533,2.041,7.768,0.314,11.398l-9.823,20.662c4.751,5.707,10,10.955,15.703,15.707
			l20.659-9.822c3.626-1.738,7.858-1.615,11.395,0.313c5.674,3.092,11.873,5.637,18.422,7.572c3.851,1.137,6.925,4.055,8.271,7.832
			l7.706,21.67c7.866,0.799,14.301,0.799,22.168,0l7.706-21.67c1.345-3.785,4.419-6.693,8.271-7.832
			c6.546-1.938,12.737-4.482,18.421-7.572c3.537-1.914,7.761-2.055,11.395-0.313l20.658,9.813
			c5.709-4.74,10.957-9.998,15.704-15.699l-9.824-20.66c-1.725-3.631-1.606-7.867,0.315-11.398
			c3.095-5.676,5.641-11.865,7.574-18.404c1.142-3.861,4.054-6.936,7.839-8.275l21.658-7.703c0.41-3.941,0.606-7.572,0.608-11.086
			C372.078,247.159,371.881,243.528,371.471,239.587z M250.669,305.864c-32.06,0-58.144-26.082-58.144-58.145
			s26.084-58.145,58.144-58.145c32.062,0,58.146,26.083,58.146,58.145S282.732,305.864,250.669,305.864z"/>
	</g>
</g>
<path fill="#565555" d="M250.667,1.335C112.966,1.335,1.335,112.966,1.335,250.668C1.335,388.368,112.966,500,250.667,500
	C388.367,500,500,388.368,500,250.668C500,112.966,388.367,1.335,250.667,1.335z M250.667,466.066
	c-118.961,0-215.399-96.438-215.399-215.398s96.438-215.4,215.399-215.4c118.962,0,215.397,96.438,215.397,215.4
	S369.63,466.066,250.667,466.066z"/>
</svg>
